<svg display="block" xmlns="http://www.w3.org/2000/svg">
          <symbol id="instagram" viewBox="0 0 28 28">
            <g>
              <path d="M9.33411 14C9.33411 11.4228 11.4228 9.33299 14 9.33299C16.5772 9.33299 18.6671 11.4228 18.6671 14C18.6671 16.5773 16.5772 18.6671 14 18.6671C11.4228 18.6671 9.33411 16.5773 9.33411 14ZM6.81117 14C6.81117 17.9705 10.0296 21.1889 14 21.1889C17.9705 21.1889 21.1889 17.9705 21.1889 14C21.1889 10.0296 17.9705 6.81118 14 6.81118C10.0296 6.81118 6.81117 10.0296 6.81117 14ZM19.7934 6.5262C19.7934 7.4535 20.5454 8.20665 21.4739 8.20665C22.4012 8.20665 23.1543 7.4535 23.1543 6.5262C23.1543 5.5989 22.4023 4.84688 21.4739 4.84688C20.5454 4.84688 19.7934 5.5989 19.7934 6.5262ZM8.34348 25.3957C6.97854 25.3335 6.2367 25.1062 5.74365 24.9139C5.09001 24.6595 4.6241 24.3564 4.13331 23.8668C3.64365 23.3771 3.33945 22.9112 3.08614 22.2575C2.89389 21.7645 2.66659 21.0226 2.60439 19.6577C2.53654 18.1819 2.52297 17.7386 2.52297 14C2.52297 10.2614 2.53767 9.81926 2.60439 8.34236C2.66659 6.97741 2.89502 6.2367 3.08614 5.74252C3.34058 5.08888 3.64365 4.62297 4.13331 4.13218C4.62297 3.64252 5.08888 3.33832 5.74365 3.08501C6.2367 2.89276 6.97854 2.66546 8.34348 2.60326C9.81925 2.53541 10.2625 2.52184 14 2.52184C17.7386 2.52184 18.1808 2.53654 19.6577 2.60326C21.0226 2.66546 21.7633 2.89389 22.2575 3.08501C22.9112 3.33832 23.3771 3.64252 23.8679 4.13218C24.3575 4.62184 24.6606 5.08888 24.915 5.74252C25.1073 6.23557 25.3346 6.97741 25.3968 8.34236C25.4646 9.81926 25.4782 10.2614 25.4782 14C25.4782 17.7375 25.4646 18.1808 25.3968 19.6577C25.3346 21.0226 25.1062 21.7645 24.915 22.2575C24.6606 22.9112 24.3575 23.3771 23.8679 23.8668C23.3782 24.3564 22.9112 24.6595 22.2575 24.9139C21.7645 25.1062 21.0226 25.3335 19.6577 25.3957C18.1819 25.4635 17.7386 25.4771 14 25.4771C10.2625 25.4771 9.81925 25.4635 8.34348 25.3957ZM8.22814 0.0848447C6.73767 0.152696 5.7199 0.389045 4.82992 0.735087C3.9094 1.09244 3.12911 1.57192 2.34995 2.34995C1.57192 3.12798 1.09244 3.90827 0.735087 4.82992C0.389045 5.7199 0.152696 6.73767 0.0848447 8.22814C0.0158625 9.72087 3.05176e-05 10.1981 3.05176e-05 14C3.05176e-05 17.802 0.0158625 18.2792 0.0848447 19.7719C0.152696 21.2624 0.389045 22.2802 0.735087 23.1701C1.09244 24.0907 1.57079 24.8721 2.34995 25.6501C3.12798 26.4281 3.90827 26.9065 4.82992 27.265C5.72103 27.611 6.73767 27.8474 8.22814 27.9152C9.722 27.9831 10.1981 28 14 28C17.8031 28 18.2792 27.9842 19.7719 27.9152C21.2624 27.8474 22.2802 27.611 23.1701 27.265C24.0906 26.9065 24.8709 26.4281 25.6501 25.6501C26.4281 24.8721 26.9065 24.0907 27.265 23.1701C27.611 22.2802 27.8485 21.2624 27.9152 19.7719C27.9831 18.2781 27.9989 17.802 27.9989 14C27.9989 10.1981 27.9831 9.72087 27.9152 8.22814C27.8474 6.73767 27.611 5.7199 27.265 4.82992C26.9065 3.9094 26.4281 3.12911 25.6501 2.34995C24.8721 1.57192 24.0907 1.09244 23.1713 0.735087C22.2802 0.389045 21.2624 0.151565 19.773 0.0848447C18.2803 0.0169934 17.8031 3.05176e-05 14.0012 3.05176e-05C10.1981 3.05176e-05 9.722 0.0158625 8.22814 0.0848447Z" fill="currentColor"/>
            </g>
            <defs>
              <clipPath id="clip0_633_106">
                <rect width="28" height="28" fill="currentColor"/>
              </clipPath>
            </defs>
          </symbol>
          <symbol id="vk" viewBox="0 0 28 28">
             <g clip-path="url(#clip0_1272_92)">
                <path d="M22.6046 19.9775H20.5703C19.8001 19.9775 19.562 19.365 18.1784 17.9627C16.9731 16.7957 16.44 16.6389 16.144 16.6389C15.7286 16.6389 15.61 16.7574 15.61 17.3307V19.168C15.61 19.6628 15.4522 19.9588 14.148 19.9588C11.5171 19.7823 9.25584 18.3474 7.94318 16.2561L7.92358 16.2234C6.39992 14.331 5.27678 12.0501 4.72128 9.55553L4.70074 9.4463C4.70074 9.15034 4.81931 8.87306 5.39255 8.87306H7.42689C7.94038 8.87306 8.13831 9.1102 8.33717 9.6629C9.3436 12.5683 11.0241 15.1171 11.7159 15.1171C11.9727 15.1171 12.0912 14.9985 12.0912 14.3468V11.3415C12.0119 9.95792 11.2809 9.84029 11.2809 9.3464C11.2893 9.08219 11.5059 8.87119 11.771 8.87119C11.7794 8.87119 11.7869 8.87119 11.7953 8.87213H11.7943H14.9957C15.4308 8.87213 15.5885 9.10927 15.5885 9.62275V13.6746C15.5885 14.1088 15.7865 14.2675 15.905 14.2675C16.1618 14.2675 16.3802 14.1088 16.8536 13.6354C17.8376 12.4339 18.6788 11.0596 19.3202 9.57794L19.3631 9.46591C19.4985 9.127 19.8234 8.89173 20.2034 8.89173C20.2211 8.89173 20.2379 8.89267 20.2557 8.8936H20.2529H22.2872C22.8997 8.8936 23.0388 9.20823 22.8997 9.64423C22.0837 11.4414 21.1669 12.9856 20.1044 14.4159L20.153 14.3468C19.9364 14.7025 19.857 14.8603 20.153 15.2571C20.3696 15.5531 21.0819 16.1655 21.5562 16.7191C22.2424 17.3979 22.8175 18.1877 23.2516 19.0597L23.275 19.1111C23.4729 19.6824 23.176 19.9793 22.6028 19.9793L22.6046 19.9775ZM18.2979 0H9.70211C1.85696 0 0 1.85696 0 9.70211V18.2979C0 26.143 1.85696 28 9.70211 28H18.2979C26.143 28 28 26.143 28 18.2979V9.70211C28 1.85696 26.1225 0 18.2979 0Z" fill="currentColor"/>
              </g>
              <defs>
                <clipPath id="clip0_1272_92">
                  <rect width="28" height="28" fill="currentColor"/>
                </clipPath>
              </defs>
          </symbol>
          <symbol id="telegram" viewBox="0 0 28 28">
            <g clip-path="url(#clip0_1272_89)">
              <path d="M14 0C6.3 0 0 6.3 0 14C0 21.7 6.3 28 14 28C21.7 28 28 21.7 28 14C28 6.3 21.7 0 14 0ZM20.86 8.54L18.48 20.02C18.34 20.86 17.78 21 17.22 20.58L13.58 17.78C12.74 18.62 11.9 19.32 11.76 19.6C11.48 19.74 11.34 20.02 11.06 20.02C10.64 20.02 10.64 19.74 10.5 19.46L9.24 15.26L5.46 14C4.62 13.72 4.62 13.16 5.6 12.74L19.88 7.28C20.44 7.14 21.14 7.42 20.86 8.54ZM17.5 9.8L9.52 14.84L10.78 19.04L11.06 16.24L17.92 10.08C18.34 9.66 18.06 9.66 17.5 9.8Z" fill="currentColor"/>
            </g>
            <defs>
              <clipPath id="clip0_1272_89">
                <rect width="28" height="28" fill="currentColor"/>
              </clipPath>
            </defs>
          </symbol>
          <symbol id="mail" viewBox="0 0 28 28">
            <g clip-path="url(#clip0_1278_96)">
              <path fill-rule="evenodd" clip-rule="evenodd" d="M5.55523 2H22.4448C23.0588 1.99999 23.5887 1.99997 24.0274 2.03203C24.4891 2.06579 24.9509 2.14004 25.4073 2.34254C26.4363 2.79926 27.2541 3.67531 27.6802 4.77793C27.8692 5.26682 27.9385 5.76169 27.9702 6.25643C28 6.72632 28 7.29404 28 7.95202V20.048C28 20.7059 28 21.2736 27.9702 21.7436C27.9385 22.2383 27.8692 22.7331 27.6802 23.2221C27.2541 24.3246 26.4363 25.2008 25.4073 25.6574C24.9509 25.8599 24.4891 25.9342 24.0274 25.9681C23.5887 26 23.0588 26 22.4448 26H5.55521C4.9411 26 4.41123 26 3.97267 25.9681C3.51091 25.9342 3.04903 25.8599 2.59273 25.6574C1.56362 25.2008 0.745976 24.3246 0.319705 23.2221C0.130705 22.7331 0.0614045 22.2383 0.0298905 21.7436C-2.75243e-05 21.2736 -1.33943e-05 20.7059 6.05735e-07 20.048V7.95203C-1.33943e-05 7.29406 -2.75243e-05 6.72632 0.0298905 6.25643C0.0614045 5.76169 0.130705 5.26682 0.319705 4.77793C0.745976 3.67531 1.56362 2.79926 2.59273 2.34254C3.04903 2.14004 3.51091 2.06579 3.97267 2.03203C4.41123 1.99997 4.94112 1.99999 5.55523 2ZM3.24443 5.41666C3.7536 4.79321 4.63806 4.73003 5.21996 5.27555L13.0781 12.6425C13.6059 13.1374 14.3941 13.1374 14.9219 12.6425L22.7801 5.27555C23.3619 4.73003 24.2465 4.79321 24.7555 5.41666C25.2647 6.04012 25.2057 6.98776 24.6239 7.53328L16.7657 14.9003C15.1822 16.3848 12.8178 16.3848 11.2343 14.9003L3.37614 7.53328C2.79425 6.98776 2.73528 6.04012 3.24443 5.41666Z" fill="currentColor"/>
            </g>
            <defs>
              <clipPath id="clip0_1278_96">
                <rect width="28" height="28" fill="currentColor"/>
              </clipPath>
            </defs>
          </symbol>
        </svg>