<svg display="none" xmlns="http://www.w3.org/2000/svg">
          <symbol id="star1" viewBox="0 0 180 180" >
            <g filter="url(#filter0_f_808_78)">
              <path d="M122.269 1.84057C125.087 -2.54088 131.89 -0.229 131.456 4.96273L127.189 55.9588C127.035 57.8021 127.911 59.5799 129.466 60.5807L172.503 88.2685C176.885 91.0873 174.573 97.8905 169.381 97.4561L118.385 93.189C116.542 93.0348 114.764 93.9108 113.763 95.4664L86.0755 138.503C83.2567 142.885 76.4536 140.573 76.888 135.381L81.155 84.3852C81.3092 82.5419 80.4333 80.7641 78.8777 79.7633L35.8406 52.0755C31.4591 49.2567 33.771 42.4535 38.9627 42.888L89.9588 47.155C91.8021 47.3092 93.5799 46.4332 94.5807 44.8777L122.269 1.84057Z" fill="#3D0066" fill-opacity="0.44"/>
            </g>
            <defs>
              <filter id="filter0_f_808_78" x="0.532616" y="-33.4674" width="180" height="180" filterUnits="userSpaceOnUse" color-interpolation-filters="sRGB">
                <feFlood flood-opacity="0" result="BackgroundImageFix"/>
                <feBlend mode="normal" in="SourceGraphic" in2="BackgroundImageFix" result="shape"/>
                <feGaussianBlur stdDeviation="11" result="effect1_foregroundBlur_808_78"/>
              </filter>
            </defs>
          </symbol>

          <symbol id="ellipse" viewBox="0 0 1465 1465">
            <g filter="url(#filter0_f_595_22)">
              <circle cx="732.5" cy="732.5" r="432.5" fill="url(#paint0_linear_595_22)" fill-opacity="0.27"/>
            </g>
              <defs>
              <filter id="filter0_f_595_22" x="0" y="0" width="1465" height="1465" filterUnits="userSpaceOnUse" color-interpolation-filters="sRGB">
              <feFlood flood-opacity="0" result="BackgroundImageFix"/>
              <feBlend mode="normal" in="SourceGraphic" in2="BackgroundImageFix" result="shape"/>
              <feGaussianBlur stdDeviation="150" result="effect1_foregroundBlur_595_22"/>
              </filter>
              <linearGradient id="paint0_linear_595_22" x1="300" y1="733.946" x2="1201.16" y2="733.946" gradientUnits="userSpaceOnUse">
              <stop stop-color="#3D0066"/>
              <stop offset="0.499159" stop-color="#7A24AD"/>
              <stop offset="1" stop-color="#5119D3"/>
              </linearGradient>
              </defs>
          </symbol>

          <symbol id="ellipseTwo" viewBox="0 0 1154 1278">
            <g filter="url(#filter0_f_734_14)">
        <circle cx="666" cy="666" r="366" fill="url(#paint0_linear_734_14)" fill-opacity="0.35"/>
        </g>
        <defs>
        <filter id="filter0_f_734_14" x="0" y="0" width="1332" height="1332" filterUnits="userSpaceOnUse" color-interpolation-filters="sRGB">
        <feFlood flood-opacity="0" result="BackgroundImageFix"/>
        <feBlend mode="normal" in="SourceGraphic" in2="BackgroundImageFix" result="shape"/>
        <feGaussianBlur stdDeviation="150" result="effect1_foregroundBlur_734_14"/>
        </filter>
        <linearGradient id="paint0_linear_734_14" x1="300" y1="667.224" x2="1062.6" y2="667.224" gradientUnits="userSpaceOnUse">
        <stop stop-color="#3D0066"/>
        <stop offset="0.499159" stop-color="#7A24AD"/>
        <stop offset="1" stop-color="#5119D3"/>
        </linearGradient>
        </defs>
          </symbol>
          
          <symbol id="block" viewBox="0 0 984 1205">
            <g filter="url(#filter0_d_728_22)">
                <path d="M937.513 218.951L-31.7361 32.1104C-40.3997 30.4404 -48.6264 36.5721 -49.5014 45.3517L-162.274 1176.91C-163.183 1186.03 -155.772 1193.83 -146.618 1193.38L846.074 1145C853.495 1144.63 859.533 1138.9 860.27 1131.5L949.6 235.167C950.369 227.45 945.128 220.419 937.513 218.951Z" fill="url(#paint0_linear_728_22)" shape-rendering="crispEdges"/>
            </g>
              <defs>
              <filter id="filter0_d_728_22" x="-170.35" y="0.835632" width="1154.02" height="1203.56" filterUnits="userSpaceOnUse" color-interpolation-filters="sRGB">
                <feFlood flood-opacity="0" result="BackgroundImageFix"/>
                <feColorMatrix in="SourceAlpha" type="matrix" values="0 0 0 0 0 0 0 0 0 0 0 0 0 0 0 0 0 0 127 0" result="hardAlpha"/>
                <feOffset dx="13" dy="-10"/>
                <feGaussianBlur stdDeviation="10.5"/>
                <feComposite in2="hardAlpha" operator="out"/>
                <feColorMatrix type="matrix" values="0 0 0 0 0.239216 0 0 0 0 0 0 0 0 0 0.4 0 0 0 0.2 0"/>
                <feBlend mode="normal" in2="BackgroundImageFix" result="effect1_dropShadow_728_22"/>
                <feBlend mode="normal" in="SourceGraphic" in2="effect1_dropShadow_728_22" result="shape"/>
              </filter>
              <linearGradient id="paint0_linear_728_22" x1="-47.8718" y1="29" x2="1096" y2="326.822" gradientUnits="userSpaceOnUse">
              <stop stop-color="#3F0666" stop-opacity="0.15"/>
              <stop offset="0.34" stop-color="#3A085B" stop-opacity="0.15"/>
              <stop offset="0.705" stop-color="#39085A" stop-opacity="0.08"/>
              <stop offset="1" stop-color="#390859" stop-opacity="0"/>
              </linearGradient>
              </defs>
          </symbol>

          <symbol id="blockTwo" viewBox="0 0 560 919">
            <g filter="url(#filter0_d_826_16)">
              <path d="M20.6217 218.951L989.871 32.1104C998.534 30.4404 1006.76 36.5721 1007.64 45.3517L1120.41 1176.91C1121.32 1186.03 1113.91 1193.83 1104.75 1193.38L112.061 1145C104.64 1144.63 98.6017 1138.9 97.8649 1131.5L8.53493 235.167C7.76581 227.45 13.0064 220.419 20.6217 218.951Z" fill="url(#paint0_linear_826_16)" shape-rendering="crispEdges"/>
            </g>
            <defs>
            <filter id="filter0_d_826_16" x="0.460144" y="0.835693" width="1154.02" height="1203.56" filterUnits="userSpaceOnUse" color-interpolation-filters="sRGB">
            <feFlood flood-opacity="0" result="BackgroundImageFix"/>
            <feColorMatrix in="SourceAlpha" type="matrix" values="0 0 0 0 0 0 0 0 0 0 0 0 0 0 0 0 0 0 127 0" result="hardAlpha"/>
            <feOffset dx="13" dy="-10"/>
            <feGaussianBlur stdDeviation="10.5"/>
            <feComposite in2="hardAlpha" operator="out"/>
            <feColorMatrix type="matrix" values="0 0 0 0 0.239216 0 0 0 0 0 0 0 0 0 0.4 0 0 0 0.2 0"/>
            <feBlend mode="normal" in2="BackgroundImageFix" result="effect1_dropShadow_826_16"/>
            <feBlend mode="normal" in="SourceGraphic" in2="effect1_dropShadow_826_16" result="shape"/>
            </filter>
            <linearGradient id="paint0_linear_826_16" x1="-1.86529" y1="29" x2="82.7663" y2="1288.11" gradientUnits="userSpaceOnUse">
            <stop stop-color="#3F0666" stop-opacity="0.15"/>
            <stop offset="0.34" stop-color="#3A085B" stop-opacity="0.15"/>
            <stop offset="0.705" stop-color="#39085A" stop-opacity="0.08"/>
            <stop offset="1" stop-color="#390859" stop-opacity="0"/>
            </linearGradient>
            </defs>
          </symbol>
        </svg>