<svg display="none" xmlns="http://www.w3.org/2000/svg">
          <symbol id="html5" viewBox="0 0 90 90">
            <g>
              <path
                d="M5.625 0H84.375L77.2116 80.8594L44.9128 90L12.8025 80.8594L5.625 0ZM31.9922 36.5625L31.1287 26.3672L68.8472 26.3813L69.7106 16.5516L20.2866 16.5375L22.9078 46.5806H57.1275L55.9125 59.4281L45 62.4319L33.9244 59.4L33.2072 51.4884H23.4225L24.6684 67.1344L45 72.5681L65.1713 67.1484L67.9556 36.5625H31.9922Z"
                fill="#F0F0F0"
              />
            </g>
          </symbol>
          <symbol id="css3" viewBox="0 0 90 90">
            <g>
              <path
                d="M6 0L13.0883 79.515L45 90L76.9118 79.515L84 0H6ZM69.5993 16.0714L68.6242 25.5729L45.143 35.4954H67.7923L65.1922 64.9479L45.247 70.7143L25.1782 64.8482L23.8783 50.0014H33.8103L34.4603 57.6964L45.143 60.3675L56.2547 57.2754L57.0055 44.9004L23.186 44.8007L22.4548 35.4986L46.547 25.5761H21.5837L20.404 16.0746L69.5993 16.0714Z"
                fill="#F0F0F0"
              />
            </g>
          </symbol>
          <symbol id="scss" viewBox="0 0 90 90">
            <g>
              <path
                d="M45 0C69.8597 0 90 20.1403 90 45C90 69.8597 69.8597 90 45 90C20.1403 90 0 69.8597 0 45C0 20.1403 20.1403 0 45 0ZM36.0478 59.985C36.7088 62.4178 36.6356 64.6734 35.9606 66.7097L35.7244 67.3847C35.6372 67.6181 35.5219 67.8375 35.4319 68.0456C34.9059 69.1453 34.2028 70.1522 33.3534 71.0916C30.7294 73.935 27.0844 75.0178 25.515 74.1094C23.8162 73.1278 24.6628 69.1003 27.6975 65.8884C30.9628 62.4459 35.6512 60.2325 35.6512 60.2325V60.2213L36.0478 59.985ZM73.2262 19.2628C71.19 11.2641 57.9347 8.64281 45.3937 13.095C37.9237 15.7472 29.8547 19.9097 24.0384 25.3434C17.1225 31.8009 16.0256 37.4259 16.4813 39.7687C18.09 48.06 29.4441 53.4966 34.1184 57.51V57.5409C32.7375 58.2131 22.6631 63.2672 20.3034 68.5125C17.7694 74.0166 20.7 77.9597 22.6013 78.4575C28.5075 80.0972 34.5853 77.1075 37.8534 72.2728C41.0034 67.545 40.7222 61.4813 39.3609 58.4916C41.22 57.9938 43.4194 57.7575 46.2319 58.095C54.1153 59.0034 55.6819 63.9562 55.3444 65.9784C55.0069 68.0006 53.3784 69.1847 52.8103 69.5222C52.2563 69.8597 52.0791 69.9609 52.1353 70.1972C52.1944 70.5347 52.4728 70.5347 52.9256 70.4756C53.5416 70.3744 57.0291 68.7909 57.2034 64.9659C57.3638 60.1172 52.7484 54.7284 44.5472 54.8297C41.1637 54.9056 39.0234 55.1813 37.5159 55.7972C37.4006 55.6369 37.2797 55.5187 37.1194 55.4006C32.0541 49.9528 22.6631 46.1306 23.0569 38.8631C23.1778 36.2278 24.1284 29.2556 41.0597 20.8181C54.945 13.8881 66.0347 15.8091 67.9388 20.0278C70.695 26.0466 62.0353 37.2403 47.5791 38.8631C42.0694 39.4791 39.1978 37.3556 38.4666 36.5653C37.6763 35.7131 37.575 35.6569 37.2769 35.8341C36.8381 36.0506 37.1166 36.7875 37.2769 37.2403C37.7297 38.3653 39.4734 40.3312 42.5222 41.3381C45.1575 42.1903 51.6347 42.6881 59.3972 39.6534C68.1131 36.2869 74.9109 26.8959 72.945 19.0125L73.2262 19.2628Z"
                fill="#F0F0F0"
              />
            </g>
            <defs>
              <clipPath id="clip0_819_128">
                <rect width="90" height="90" fill="white" />
              </clipPath>
            </defs>
          </symbol>
          <symbol id="js" viewBox="0 0 90 90">
            <g>
              <path
                d="M0 0H90V90H0V0ZM82.6312 68.5406C81.9731 64.4231 79.29 60.9806 71.3672 57.7603C68.6137 56.4722 65.5369 55.5638 64.6284 53.4825C64.2909 52.2506 64.2319 51.5784 64.4512 50.8444C65.0222 48.4116 67.8797 47.6944 70.1353 48.3694C71.6006 48.8222 72.9478 49.9359 73.7972 51.7388C77.6784 49.2047 77.6784 49.2047 80.3756 47.52C79.3659 45.9534 78.8681 45.2644 78.1791 44.6063C75.8194 41.9541 72.6722 40.6069 67.5591 40.725L64.9069 41.0625C62.3728 41.6784 59.9569 43.0256 58.4916 44.8284C54.2278 49.6631 55.4597 58.1006 60.6291 61.6022C65.7422 65.4244 73.2262 66.2597 74.1937 69.8653C75.0881 74.2612 70.9284 75.6675 66.8109 75.1528C63.7791 74.4778 62.0944 72.9563 60.2325 70.1438L53.3756 74.0841C54.1519 75.8869 55.0603 76.6631 56.4075 78.2438C62.9269 84.8222 79.245 84.4847 82.1728 74.4778C82.2741 74.1403 83.0672 71.8256 82.4512 68.2959L82.6312 68.5406ZM48.9403 41.3662H40.5169C40.5169 48.6309 40.4719 55.8534 40.4719 63.135C40.4719 67.7503 40.7053 71.9972 39.96 73.3022C38.7141 75.8812 35.5359 75.5578 34.0847 75.105C32.6053 74.3737 31.8431 73.3613 30.9797 71.8959C30.7294 71.4994 30.555 71.1647 30.4959 71.1647L23.6559 75.3834C24.7978 77.7431 26.4684 79.7794 28.6228 81.0675C31.8319 82.9856 36.1378 83.6016 40.6491 82.5919C43.5797 81.7425 46.1138 79.9987 47.43 77.3044C49.3481 73.8169 48.9375 69.5419 48.9234 64.7494C48.9684 57.0431 48.9234 49.3397 48.9234 41.5744L48.9403 41.3662Z"
                fill="#F0F0F0"
              />
            </g>
            <defs>
              <clipPath id="clip0_819_130">
                <rect width="90" height="90" fill="white" />
              </clipPath>
            </defs>
          </symbol>
          <symbol id="ts" viewBox="0 0 90 90">
            <g>
              <path
                d="M0 45V90H90V0H0V45ZM72.5231 41.4113C74.8097 41.9822 76.5506 43.0088 78.1622 44.6625C78.9834 45.54 80.2125 47.1516 80.3166 47.5481C80.3447 47.6663 76.4353 50.2875 74.0616 51.7528C73.9744 51.8119 73.6228 51.4462 73.2403 50.8725C72.0844 49.1878 70.8666 48.4566 69.0075 48.3244C66.2822 48.1472 64.5244 49.5703 64.5384 51.9581C64.5244 52.5431 64.6566 53.1309 64.9181 53.6428C65.52 54.8887 66.6478 55.6341 70.1325 57.1444C76.5788 59.9119 79.3322 61.7428 81.045 64.3359C82.9631 67.2356 83.3878 71.865 82.0997 75.3216C80.6653 79.0566 77.1188 81.6047 72.1378 82.44C70.5994 82.7184 66.9375 82.6734 65.2809 82.3669C61.6641 81.7228 58.2356 79.9341 56.1262 77.5912C55.2909 76.6828 53.6794 74.295 53.7834 74.1347C53.8284 74.0756 54.1941 73.8422 54.6047 73.6059C55.0153 73.3697 56.5228 72.4922 57.9459 71.6709L60.5391 70.1634L61.0819 70.9678C61.8441 72.1237 63.4978 73.7072 64.4962 74.2331C67.3678 75.7575 71.3081 75.5381 73.2572 73.7944C74.0475 73.1363 74.4891 72.1237 74.43 71.1C74.43 70.0594 74.2978 69.5925 73.755 68.8134C73.0519 67.8178 71.6316 66.9684 67.5731 65.2106C62.9297 63.2025 60.9216 61.9734 59.1075 59.9963C57.9656 58.6913 57.1162 57.1556 56.6325 55.4991C56.295 54.225 56.2078 51.03 56.4722 49.7559C57.4256 45.2588 60.8231 42.1397 65.7 41.2172C67.2834 40.9106 70.9734 41.0259 72.5259 41.4084L72.5231 41.4113ZM51.4012 45.1772L51.4294 48.8531H39.7097V82.1503H31.4184V48.8531H19.7156V45.2503C19.7156 43.2422 19.7606 41.5744 19.8169 41.5294C19.8619 41.4703 26.9803 41.4422 35.6231 41.4562L51.3563 41.5012L51.4012 45.1772Z"
                fill="#F0F0F0"
              />
            </g>
            <defs>
              <clipPath id="clip0_819_132">
                <rect width="90" height="90" fill="white" />
              </clipPath>
            </defs>
          </symbol>
          <symbol id="react" viewBox="0 0 90 90">
            <g>
              <path
                d="M45 36.9731C40.5759 36.9731 36.9731 40.5759 36.9731 45C36.9731 49.424 40.5759 53.0268 45 53.0268C49.4241 53.0268 53.0269 49.424 53.0269 45C53.0269 40.5759 49.4241 36.9731 45 36.9731ZM22.5281 60.9525L20.7563 60.5137C7.57125 57.1725 0 51.5193 0 44.9859C0 38.4525 7.57406 32.7993 20.7563 29.4581L22.5281 29.0193L23.0259 30.7772C24.3591 35.3756 26.0719 39.8587 28.1391 44.1956L28.5188 44.9859L28.1391 45.7903C26.0747 50.1103 24.3591 54.5934 23.0259 59.2087L22.5281 60.9525ZM19.9378 33.5587C9.91688 36.3712 3.76594 40.6912 3.76594 44.9859C3.76594 49.2806 9.91969 53.5837 19.9378 56.4131C21.1697 52.5009 22.6491 48.6928 24.3759 44.9859C22.6462 41.279 21.1669 37.4709 19.9378 33.5587ZM67.4719 60.9525L66.9741 59.1947C65.6409 54.5962 63.9281 50.1131 61.8609 45.7903L61.4813 44.9859L61.8609 44.1815C63.9253 39.8615 65.6409 35.3784 66.9741 30.7631L67.4719 29.0193L69.2438 29.4581C82.4288 32.7993 90 38.4525 90 44.9859C90 51.5193 82.4259 57.1725 69.2438 60.5137L67.4719 60.9525ZM65.6241 44.9859C67.4269 48.8812 68.9203 52.7062 70.0622 56.4131C80.0972 53.5865 86.2341 49.2806 86.2341 44.9859C86.2341 40.6912 80.0803 36.3881 70.0622 33.5587C68.8303 37.454 67.3509 41.279 65.6241 44.9859ZM19.9069 33.5447L19.4091 31.7868C15.7022 18.72 16.83 9.34591 22.5 6.07779C28.0659 2.86872 36.9872 6.66279 46.3472 16.2731L47.6212 17.5781L46.3472 18.8831C43.0228 22.3397 39.9909 26.0606 37.2656 30.015L36.7537 30.7322L35.8734 30.8053C31.0837 31.185 26.3363 31.9472 21.6788 33.0918L19.9069 33.5447ZM27.0253 8.68779C26.0156 8.68779 25.1213 8.8931 24.3731 9.33185C20.6522 11.4862 19.9941 18.9562 22.5563 29.0334C26.5556 28.139 30.5972 27.509 34.6866 27.1434C37.0294 23.8022 39.6084 20.61 42.3759 17.6062C36.5316 11.9081 30.9938 8.68779 27.0253 8.68779ZM62.9888 85.0331C62.9747 85.0331 62.9747 85.0331 62.9888 85.0331C57.6422 85.0331 50.7712 81.0197 43.6528 73.6959L42.3787 72.3909L43.6528 71.0859C46.9772 67.6293 50.0091 63.9084 52.7344 59.954L53.2322 59.2369L54.1125 59.1497C58.9022 58.784 63.6497 58.0219 68.3213 56.8631L70.0931 56.4244L70.5909 58.1822C74.2978 71.249 73.17 80.609 67.5 83.8744C66.1219 84.6647 64.5694 85.064 62.9888 85.0331ZM47.6212 72.3628C53.4656 78.0609 59.0034 81.284 62.9719 81.284H62.9859C63.9816 81.284 64.8759 81.0647 65.6241 80.64C69.345 78.4856 70.02 71.0156 67.4409 60.9384C63.4416 61.8328 59.3831 62.4628 55.3106 62.8144C52.9678 66.1697 50.3887 69.345 47.6212 72.3628ZM70.0931 33.5447L68.3213 33.0918C63.6497 31.95 58.9022 31.1878 54.1125 30.8053L53.2322 30.7322L52.7344 30.015C50.0091 26.0606 46.9772 22.3397 43.6528 18.8831L42.3787 17.5781L43.6528 16.2731C53.0128 6.66279 61.9341 2.86872 67.5 6.07779C73.17 9.3431 74.2978 18.72 70.5909 31.7868L70.0931 33.5447ZM55.3134 27.1434C59.5913 27.54 63.6637 28.17 67.4437 29.0334C70.0228 18.9562 69.3478 11.4834 65.6269 9.33185C61.92 7.19435 54.9478 10.4737 47.6241 17.609C50.3916 20.6269 52.9566 23.805 55.3134 27.1462V27.1434ZM27.0253 85.0331C25.4419 85.0612 23.8753 84.6675 22.5 83.8772C16.83 80.6118 15.7022 71.249 19.4091 58.185L19.9069 56.4272L21.6788 56.8659C26.0156 57.9656 30.7913 58.725 35.8734 59.1525L36.7537 59.2397L37.2516 59.9569C39.9769 63.9112 43.0088 67.6322 46.3331 71.0887L47.6072 72.3937L46.3331 73.6987C39.2288 81.0225 32.3578 85.0359 27.0253 85.0359V85.0331ZM22.5591 60.9384C19.98 71.0156 20.655 78.4884 24.3759 80.64C28.0828 82.7494 35.0409 79.4981 42.3787 72.3628C39.6112 69.345 37.0322 66.1669 34.6894 62.8115C30.6028 62.46 26.5584 61.8328 22.5591 60.9384ZM45 63.2953C41.9091 63.2953 38.745 63.1631 35.5669 62.8987L34.6866 62.8256L34.1747 62.0943C32.3888 59.5153 30.6872 56.8659 29.1206 54.1406C27.5372 51.4153 26.0887 48.6337 24.7416 45.7903L24.3619 44.9859L24.7416 44.1815C26.0887 41.3409 27.54 38.5565 29.1206 35.8312C30.6731 33.1509 32.3719 30.4706 34.1747 27.8775L34.6866 27.1462L35.5669 27.0731C41.85 26.5444 48.1641 26.5444 54.4331 27.0731L55.3134 27.1462L55.8253 27.8775C59.4141 33.0328 62.5781 38.4975 65.2584 44.1815L65.6381 44.9859L65.2584 45.7903C62.5781 51.4743 59.4281 56.939 55.8253 62.0943L55.3134 62.8256L54.4331 62.8987C51.2691 63.1631 48.0909 63.2953 45 63.2953ZM36.7678 59.2228C42.3056 59.6475 47.6944 59.6475 53.2462 59.2228C56.3372 54.6975 59.0906 49.9359 61.4784 44.9831C59.1047 40.0331 56.3512 35.2715 53.2322 30.7434C47.7534 30.3187 42.2466 30.3187 36.7678 30.7434C33.6488 35.2687 30.8925 40.0303 28.5216 44.9831C30.9094 49.9331 33.6628 54.6947 36.7678 59.2228Z"
                fill="#F0F0F0"
              />
            </g>
          </symbol>
          <symbol id="redux" viewBox="0 0 90 90">
            <g>
              <path d="M61.2754 60.6262C64.3891 60.3092 66.7513 57.6702 66.6439 54.5031C66.5367 51.3365 63.8522 48.803 60.631 48.803H60.4164C57.0876 48.9085 54.511 51.6532 54.6185 54.9255C54.7259 56.509 55.37 57.8812 56.3363 58.8312C52.6857 65.9041 47.1023 71.0766 38.7276 75.4047C33.0367 78.3604 27.1316 79.4162 21.2264 78.6774C16.3946 78.044 12.6366 75.9329 10.2741 72.4488C6.83842 67.2763 6.51642 61.6814 9.41549 56.0868C11.4556 52.0753 14.6764 49.1194 16.7166 47.6414C16.2871 46.2692 15.6428 43.9469 15.3208 42.258C-0.248078 53.3421 1.36263 68.3321 6.08698 75.4047C9.63005 80.683 16.824 83.9556 24.7694 83.9556C26.9167 83.9556 29.0641 83.7441 31.2117 83.2167C44.9553 80.5775 55.3703 72.5546 61.2754 60.6262ZM80.1728 47.5362C72.0127 38.1411 59.987 32.9686 46.2434 32.9686H44.5258C43.5594 31.0685 41.5192 29.8015 39.2645 29.8015H39.0496C35.7213 29.9072 33.1447 32.6516 33.2519 35.9243C33.3593 39.0911 36.0433 41.6246 39.2645 41.6246H39.4791C41.8413 41.5192 43.8815 40.0412 44.7404 38.0353H46.6729C54.8333 38.0353 62.5638 40.3576 69.5433 44.897C74.9115 48.3806 78.777 52.9199 80.9243 58.4091C82.7497 62.8427 82.6422 67.1709 80.7095 70.8656C77.7032 76.4603 72.657 79.5217 65.9998 79.5217C61.7048 79.5217 57.625 78.2549 55.4774 77.3049C54.2964 78.3604 52.1488 80.0493 50.6455 81.1054C55.2628 83.2165 59.987 84.3777 64.4965 84.3777C74.8041 84.3777 82.4276 78.7826 85.3267 73.1879C88.4402 67.0651 88.2253 56.509 80.1728 47.5362ZM25.6283 62.4203C25.7358 65.5871 28.42 68.1204 31.6412 68.1204H31.8561C35.1844 68.0152 37.7612 65.2705 37.6537 61.9981C37.5466 58.831 34.8621 56.2977 31.6412 56.2977H31.4266C31.2117 56.2977 30.8894 56.2977 30.6751 56.4029C26.2727 49.2249 24.4474 41.4134 25.0918 32.9683C25.5209 26.6345 27.6685 21.1451 31.4266 16.6058C34.54 12.6999 40.5529 10.7998 44.6332 10.6945C56.0143 10.4832 60.8456 24.4175 61.1679 30.0124C62.5638 30.3291 64.926 31.0682 66.5367 31.5961C65.248 14.495 54.511 5.62769 44.2038 5.62769C34.54 5.62769 25.6283 12.4893 22.0849 22.6233C17.146 36.1352 20.3671 49.1194 26.3798 59.3591C25.8432 60.098 25.5209 61.259 25.6283 62.4203Z" fill="#F0F0F0"/>
            </g>
          </symbol>
          <symbol id="next" viewBox="0 0 90 90">
            <g>
              <path d="M66.7941 84.389C66.4594 84.5662 66.4875 84.6225 66.8081 84.4594C66.9122 84.4172 66.9994 84.3581 67.0753 84.2878C67.0753 84.2287 67.0753 84.2287 66.7941 84.389ZM67.4691 84.0234C67.3088 84.1556 67.3087 84.1556 67.5 84.0684C67.6012 84.0094 67.6913 83.9531 67.6913 83.9362C67.6913 83.8603 67.6463 83.8772 67.4691 84.0234ZM67.9078 83.759C67.7475 83.8912 67.7475 83.8912 67.9388 83.8041C68.0428 83.745 68.13 83.6831 68.13 83.6691C68.13 83.5987 68.085 83.6128 67.9078 83.759ZM68.3522 83.4975C68.1919 83.6297 68.1919 83.6297 68.3775 83.5397C68.4816 83.4834 68.5687 83.4244 68.5687 83.4075C68.5687 83.3372 68.5237 83.3512 68.3522 83.4975ZM68.9513 83.1009C68.6447 83.3062 68.5378 83.4384 68.8191 83.2922C69.0075 83.1769 69.3281 82.9237 69.2719 82.9237C69.1509 82.9687 69.0497 83.0447 68.9484 83.1009H68.9513ZM42.0553 0.0309259C41.85 0.0449884 41.2341 0.101238 40.6941 0.146238C27.9028 1.30499 15.9356 8.18999 8.35031 18.7959C4.15688 24.6094 1.43438 31.3622 0.407812 38.4525C0.045 40.9275 0 41.6587 0 45.014C0 48.3665 0.045 49.0865 0.407812 51.5615C2.8575 68.4675 14.8838 82.6594 31.185 87.9187C34.1184 88.8553 37.1925 89.5022 40.6941 89.8987C42.0553 90.045 47.9419 90.045 49.3031 89.8987C55.3556 89.2237 60.4659 87.7303 65.5228 85.1512C66.2991 84.7575 66.4453 84.6534 66.3412 84.5662C63.8662 81.3009 61.4363 78.0328 59.0034 74.7365L51.8119 65.025L42.8034 51.6797C39.7997 47.2134 36.7847 42.7584 33.7219 38.3372C33.6909 38.3372 33.6516 44.2687 33.6347 51.5025C33.6037 64.1728 33.6037 64.6875 33.4434 64.98C33.2831 65.3315 33.0187 65.6241 32.6672 65.7872C32.3887 65.9194 32.1384 65.9475 30.8081 65.9475H29.2866L28.89 65.7C28.6425 65.5397 28.4372 65.3175 28.305 65.0559L28.1138 64.6594L28.1278 47.0222L28.1588 29.385L28.4372 29.0334C28.6144 28.8169 28.8338 28.6397 29.0813 28.5075C29.4497 28.3303 29.5959 28.3022 31.1175 28.3022C32.9034 28.3022 33.1987 28.3725 33.6684 28.8872C37.3134 34.3209 40.9472 39.7687 44.5219 45.2334C50.3691 54.0984 58.3509 66.195 62.2744 72.1294L69.4097 82.9266L69.7613 82.6931C73.1897 80.4066 76.3088 77.684 79.0003 74.579C84.6703 68.0878 88.3491 60.1031 89.595 51.5812C89.9578 49.1062 90.0028 48.3722 90.0028 45.0197C90.0028 41.6644 89.9578 40.9472 89.595 38.4722C87.1453 21.5662 75.1191 7.37436 58.8178 2.11218C55.7691 1.14749 52.6331 0.489363 49.4578 0.151863C48.6056 0.0646759 42.7894 -0.0393866 42.0581 0.0365509L42.0553 0.0309259ZM60.4688 27.2475C60.8934 27.45 61.2141 27.8325 61.3603 28.2712C61.4362 28.5075 61.4503 33.3984 61.4362 44.415L61.4053 60.2325L58.6237 55.9575L55.8253 51.6797V40.1962C55.8253 32.7516 55.8563 28.5778 55.8956 28.3725C56.0278 27.9028 56.3484 27.5091 56.7759 27.2616C57.1247 27.0844 57.2597 27.0703 58.6519 27.0703C59.9541 27.0703 60.1762 27.0844 60.4688 27.2475Z" fill="#F0F0F0"/>
            </g>
            <defs>
              <clipPath id="clip0_1247_69">
                <rect width="90" height="90" fill="white"/>
              </clipPath>
            </defs>
          </symbol>
          <symbol id="tailwind" viewBox="0 0 90 90">
            <g>
              <path d="M22.5 37.3333C25.5 25.1111 33 19 45 19C63 19 65.25 32.75 74.25 35.0417C80.25 36.5694 85.5 34.2778 90 28.1667C87 40.3889 79.5 46.5 67.5 46.5C49.5 46.5 47.25 32.75 38.25 30.4583C32.25 28.9306 27 31.2222 22.5 37.3333ZM0 64.8333C3 52.6111 10.5 46.5 22.5 46.5C40.5 46.5 42.75 60.25 51.75 62.5417C57.75 64.0694 63 61.7778 67.5 55.6667C64.5 67.8889 57 74 45 74C27 74 24.75 60.25 15.75 57.9583C9.75 56.4306 4.5 58.7222 0 64.8333Z" fill="#F0F0F0"/>
            </g>
          </symbol>
          <symbol id="figma" viewBox="0 0 90 90">
            <g>
              <path fill-rule="evenodd" clip-rule="evenodd" d="M16.875 20.3625C16.875 12.2175 23.6531 5.625 32.0119 5.625H57.9881C66.3469 5.625 73.125 12.2231 73.125 20.3625C73.1151 22.8252 72.4835 25.2455 71.2888 27.399C70.0941 29.5525 68.3748 31.3694 66.2906 32.6812C68.3748 33.9931 70.0941 35.81 71.2888 37.9635C72.4835 40.117 73.1151 42.5373 73.125 45C73.125 53.1394 66.3469 59.7375 57.9881 59.7375H57.6562C53.9081 59.7493 50.2857 58.3865 47.475 55.9069V69.48C47.475 77.7263 40.5281 84.375 32.1019 84.375C23.7544 84.375 16.875 77.7938 16.875 69.6375C16.8849 67.1748 17.5165 64.7545 18.7112 62.601C19.9059 60.4475 21.6252 58.6306 23.7094 57.3187C21.6252 56.0069 19.9059 54.19 18.7112 52.0365C17.5165 49.883 16.8849 47.4627 16.875 45C16.8849 42.5373 17.5165 40.117 18.7112 37.9635C19.9059 35.81 21.6252 33.9931 23.7094 32.6812C21.6252 31.3694 19.9059 29.5525 18.7112 27.399C17.5165 25.2455 16.8849 22.8252 16.875 20.3625ZM42.525 35.0944H32.0063C26.3813 35.0944 21.825 39.5269 21.825 45C21.825 50.4563 26.3531 54.8719 31.9444 54.9056H42.5138V35.1L42.525 35.0944ZM47.475 45C47.475 50.4731 52.0369 54.9056 57.6562 54.9056H57.9881C63.6131 54.9056 68.1694 50.4731 68.1694 45.0056C68.1694 39.5269 63.6131 35.0944 57.9881 35.0944H57.6562C52.0369 35.0944 47.475 39.5269 47.475 45ZM32.0119 59.7375H31.95C26.3587 59.7656 21.8362 64.1925 21.8362 69.6375C21.8362 75.0938 26.4487 79.5488 32.0962 79.5488C37.8281 79.5488 42.5194 75.0206 42.5194 69.48V59.7375H32.0119ZM32.0119 10.4513H42.525V30.2681H32.0119C26.3869 30.2681 21.8306 25.83 21.8306 20.3569C21.8306 14.8894 26.3869 10.4513 32.0119 10.4513ZM47.4806 30.2681V10.4513H57.9881C63.6131 10.4513 68.1694 14.8894 68.1694 20.3569C68.1694 25.83 63.6131 30.2681 57.9881 30.2681H47.475H47.4806Z" fill="#F0F0F0"/>
            </g>
          </symbol>
        </svg>