<svg width="90" height="90" fill="none" xmlns="http://www.w3.org/2000/svg"><path d="M70.593 3.788c2.298 1.968 3.142 3.994 3.507 7.012.091 3.659-.683 6.988-2.044 10.388C71.64 22.33 71.64 22.33 72 23.4c.486.61.978 1.186 1.5 1.763a36.583 36.583 0 013.356 4.444l.35.545C78 31.418 78 31.418 78 32.1l.616-.273c1.96-.8 3.618-1.309 5.684-.627 1.39.77 2.614 1.695 3.318 3.15.627 2.34.153 4.04-.918 6.15-.97 1.52-2.317 2.779-4.107 3.182l-.693.118.097 1.167c.713 9.849-2.27 18.762-8.572 26.345A69.09 69.09 0 0171.4 73.5l-.797.844C68.91 76.109 67.178 77.61 65.1 78.9l-.88.556c-6.567 3.953-13.417 6.406-21.114 6.4h-1.04A65.693 65.693 0 0133.3 85.2l-.816-.1c-4.05-.63-8.078-2.496-11.484-4.7l-1.026-.616c-2.733-1.66-5.927-3.656-7.374-6.584l-.9-.3a33.014 33.014 0 01-1.557-2.119l-.442-.653C4.497 62.282 2.247 53.172 3.938 43.8c.24-1.116.529-2.208.862-3.3l.185-.616c1.116-3.571 2.828-7.327 5.158-10.27.52-.75.338-1.376.195-2.24-.092-.447-.19-.894-.295-1.338C8.892 21.024 9.689 16.398 12.3 12c1.18-1.613 2.61-3.045 4.637-3.445 3.384-.107 5.804 1.185 8.257 3.376 1.029.974 1.629 1.714 2.106 3.07l.51-.175c3.46-1.16 6.884-2.103 10.496-2.657l.953-.149c3.016-.428 5.981-.436 9.003-.076l.687.078c2.115.257 4.179.679 6.25 1.178l.116-.821c.619-3.274 3.285-5.782 5.915-7.634 2.894-1.762 6.293-3.12 9.363-.957zm-10.686 8.41c-.574.794-.99 1.616-1.407 2.502l.978.43A43.25 43.25 0 0167.5 19.8l.6.3c1.153-3.123 2.069-6.048.9-9.3-.629-1.115-1.035-1.69-2.1-2.4-2.98-.486-5.179 1.707-6.993 3.797zM46.8 13.8l-.6.6h3.9v-.3c-.537-.066-1.075-.128-1.613-.187l-.907-.106-.78-.007zm-9.3.3v.3H39v-.3h-1.5zm-1.2 0l-.6.6h.9l-.3-.6zm-19.8 3.6c-1.09 1.849-1.406 3.592-1.2 5.7l.085 1.033c.284 2.684.927 4.905 2.015 7.367l.9-.3-.3-1.8.412.45c.45.518.45.518 1.088.45v-2.7h.6l.6 1.2c.475-.374.475-.374.9-.9V27l.712-.075c.816-.143.816-.143 1.163-.768.21-.616.388-1.22.525-1.857l.6.9c.438-.794.6-1.168.6-2.1l.6-.3v.6l.9-.3a17.52 17.52 0 00-2.85-3.975l-.43-.468c-1.287-1.383-2.238-2.346-4.193-2.51-1.203.102-1.95.657-2.727 1.553zm24.3-1.5c.418 1.33 1.081 2.062 2.1 3-.185-1.2-.781-2.04-1.5-3h-.6zM53.1 18c-.348 1.044-.233 1.303.13 2.306l.262.735.208.56.6-.6-.9-3h-.3zm-18.9.6c.573 1.061 1.088 1.737 2.1 2.4-.352-1-.657-1.732-1.5-2.4h-.6zm13.2 2.7l.3.6-.3-.6zm6.6.3l.3.6-.3-.6zm-6.3.3l.6 1.2-.3-1.2h-.3zm-6.9.6c.694 1.117 1.285 1.984 2.4 2.7-.45-.935-.908-1.846-1.5-2.7h-.9zm28.8 3c-.73.73-.83 1.08-.9 2.1.34.836.34.836.9 1.5l.9.3.9-.6c.123-1.114.143-1.834-.394-2.831-.501-.57-.501-.57-1.406-.469zm-13.8.3v.6h2.7v-.3l-2.7-.3zM48 27.9c1.068.385 1.605.216 2.625-.243 1.316-.565 2.578-.946 3.975-1.257-2.089-.74-4.77.432-6.6 1.5zm11.1-1.5l1.2.3v.6l.824.2c4.311 1.122 7.668 3.387 9.976 7.3l.9-.3c-.896-2.803-3.902-5.011-6.35-6.468-2.087-1.06-4.193-1.846-6.55-1.632zm-22.2.6c.405 1.326.978 1.903 2.1 2.7l.6-.3a172.54 172.54 0 00-1.013-1.2l-.57-.675L37.5 27h-.6zm17.4 0v.3h2.1V27h-2.1zm2.7 0v.3h3V27h-3zm-3.9.3l1.2.3-1.2-.3zm-1.2.3l1.2.3-1.2-.3zM30 29.1c.724.958 1.404 1.724 2.4 2.4l.6-.3a234.16 234.16 0 00-1.163-1.05l-.654-.59c-.538-.522-.538-.522-1.183-.46zm16.5-.3l-.9.6v.6l-.544.075c-.855.294-1.03.696-1.556 1.425l-.9.731c-.851.727-1.326 1.267-1.8 2.27v.9h.6v.6l-.9.3c-.1.197-.198.395-.3.6l-.9.3c-.307.517-.307.517-.507 1.143l-.228.625c-.216.716-.216.716-.165 1.831l.9.3v-.9h.6l.188-.54c1.317-3.543 3.26-6.638 6.412-8.76l-.6-1.2h.9l-.3-.9zm1.2.6l-.3.6.9-.3-.6-.3zm30.956 4.669c-.42.415-.42.415-.356 1.031l-.544.038c-.73.224-.73.224-1.2 1.012-.461 1.36-.451 2.375-.056 3.75 1.008 1.67 2.321 2.48 4.2 3 1.25 0 1.874-.156 2.925-.825.699-.699 1.125-1.296 1.575-2.175l.506-.975c.461-1.317.54-2.442.394-3.825l-.3-.6h-.6l.3-.9-1.2.3-.6-.9c-2.064-.688-3.439-.315-5.044 1.069zM50.7 36.3c.082.583.082.583.3 1.2 1.424.95 2.863.596 4.5.3 1.215-.46 1.967-1.001 2.7-2.1.05-.787.05-.787 0-1.5-2.561-1.28-5.646.341-7.5 2.1zm21.6-1.5l-.6.3c.25 1.137.657 2.206 1.05 3.3 1.682 4.954 1.167 10.177-1.133 14.884-2.419 4.308-6.029 7.29-10.717 8.816-5.385 1.343-9.978.421-14.7-2.4-2.27-1.666-4.136-3.77-5.4-6.3h-.9l.177-.65c.14-.966-.002-1.524-.309-2.444l-.26-.802c-.07-.2-.138-.399-.208-.604l-.394.431c-.506.47-.506.47-1.406.77-.118 1.998.268 3.511.956 5.38l.265.766c.878 2.452 1.82 4.722 3.935 6.34l.873.672.87.641.787.594c.724.53 1.457 1.026 2.214 1.506l.587.375c1.811.972 3.776 1.066 5.791 1.22 1.283.102 2.347.228 3.522.805l.6-2.7.923-.144c5.992-.99 9.816-3.384 13.477-8.256 2.86-4.005 4.226-8.893 3.461-13.784-.417-1.8-1.027-3.533-1.661-5.266l-.227-.62c-.405-1.066-.83-1.962-1.573-2.83zm-43.257.919c-.735.786-.8 1.315-.843 2.381.115.852.115.852.6 1.5.915.27.915.27 1.8.3.498-.505.498-.505.9-1.2-.02-.785-.02-.785-.244-1.575l-.193-.81-.163-.615c-.94-.306-.94-.306-1.857.019zM38.1 41.1l.3.6-.3-.6zm.6.3l.3.9-.3-.9zm23.1 1.444c-.406.215-.813.43-1.22.643l-.59.314c-.88.446-1.78.823-2.69 1.2v.9l-.65-.308c-.936-.322-1.488-.306-2.463-.18a27.294 27.294 0 01-3.787.187v.6h-.6l-.3-.9-.9.3.3.3-.3.6-1.5-1.2c-.873.666-1.486 1.18-2.1 2.1-.072.617-.072.617-.038 1.257L45 49.8h.9l.3 1.5.9.3.3.6c1.069.411 2.17.322 3.3.3l-.3 1.5h.6l-.304.5c-.676 1.597-.181 3.534.435 5.088.403.742.403.742 1.069 1.012 1.102.04 1.95.05 3-.3l.3-1.8h.6v-1.2h-.6v-1.2h.6v-2.4h-.6l.3-1.2 1.01-.21c4.322-.931 7.186-1.981 9.77-5.733.385-.67.385-.67.32-1.557l-.6-.3.9-.6c-.165-1.012-.317-1.525-.9-2.4-1.808-.246-2.966.305-4.5 1.144zm-23.7.356l.6.9v-.9h-.6zm-.3 1.2a72.83 72.83 0 00-.057 1.463l-.031.822.088.715.9.6v-3.3l-.9-.3zm-15.375 3.02c-1.445 1.858-1.817 3.988-2.025 6.281h.6l.056.506c.456 1.3 1.53 2.051 2.644 2.794 2.131.222 4.155.253 6-.9 1.379-1.286 2.026-2.562 2.212-4.425-.05-1.667-.638-3.216-1.75-4.468-2.165-1.907-5.704-1.957-7.737.212zM38.7 48l.3.6-.3-.6zm1.2 13.5l-.6.9.3.9.9-1.8h-.6zm-7.5 1.2l-.9 1.8h.6l.9-1.8h-.6zm6.6.6l.3.6-.3-.6zm27.6 3.6V69c.708-.708.747-1.133.9-2.1h-.9zm-23.4 1.5c-.277.371-.537.755-.788 1.144l-.424.643c-.391.65-.391.65.012 1.513.888-1.009 1.177-2.007 1.5-3.3h-.3zm6.6.9c-.21.436-.415.874-.62 1.313l-.347.738-.233.65.3.6c.21-.38.415-.762.618-1.144l.349-.644c.324-.657.324-.657-.067-1.513zm11.4.9l-1.2 3 .6.6c.16-.43.315-.861.468-1.293l.264-.728c.242-.722.242-.722-.132-1.579zm-27.6.6c-.488.85-.488.85-.9 1.8l.3.9 1.5-2.7h-.9zm20.7 2.4c-.338.55-.338.55-.6 1.2l.3.9 1.2-2.1h-.9zm-28.8.6l-.9 1.2.3.6.9-1.2-.3-.6zm27.9 1.5l.3.6-.3-.6zm-29.1.3l.3.6-.3-.6zm15.9 1.2v.9-.9zm16.2.6c-.488.85-.488.85-.9 1.8l.3.9.9-2.7h-.3zm-16.8.3l.3.6-.3-.6zm6.6 0l.3.6.3-.6h-.6zm-14.1.3l.3.6.3-.6h-.6zm7.2.3v.9-.9zm6.6 0v.9-.9zm-14.1.3l-.9 1.8h.6l.6-1.8h-.3zm13.5.6l.3.6-.3-.6z" fill="#F0F0F0"/><path d="M65.4 62.1h1.2l-.3.9-1.2-.6.3-.3zM45 30.6h.6v.6l-1.2.3.6-.9z" fill="#F0F0F0"/><path d="M74.1 44.4h.6v.9h-.6v-.9z" fill="#EFEFEF"/><path d="M74.1 45.6h.6l-.3.9-.3-.9z" fill="#F0F0F0"/><path d="M45.6 48h.6v.6h-.6V48z" fill="#EFEFEF"/></svg>