<svg width="140" height="57" viewBox="0 0 140 57" fill="none" xmlns="http://www.w3.org/2000/svg">
<g clip-path="url(#clip0_595_61)">
<path d="M49.0767 41.3302C51.4885 47.3114 45.2144 53.0954 39.4486 50.2062L9.52933 35.2138C4.60628 32.7469 4.32768 25.8241 9.03656 22.9696L38.6299 5.02989C44.3214 1.57968 51.1624 7.27144 48.8048 13.4955L44.4694 24.9408C43.8461 26.5863 43.8654 28.4062 44.5235 30.0381L49.0767 41.3302Z" fill="url(#paint0_linear_595_61)"/>
<path d="M26.0805 28.7578H23.9066V33.093H26.1942C27.1632 33.093 27.8794 32.9077 28.3429 32.5369C28.8063 32.1662 29.038 31.5974 29.038 30.8306C29.038 29.4488 28.0522 28.7578 26.0805 28.7578ZM23.9066 22.2614V25.952H25.9541C26.9147 25.952 27.6056 25.8045 28.0269 25.5096C28.4566 25.2147 28.6715 24.7386 28.6715 24.0814C28.6715 23.4242 28.4398 22.9565 27.9763 22.6785C27.5129 22.4004 26.7714 22.2614 25.7519 22.2614H23.9066ZM20.3803 36V19.367H25.5496C27.9005 19.367 29.611 19.7041 30.6811 20.3782C31.7512 21.0438 32.2862 22.1097 32.2862 23.5758C32.2862 24.5617 32.0545 25.3748 31.5911 26.0152C31.1277 26.6555 30.5041 27.0431 29.7205 27.178V27.2917C30.7569 27.5192 31.511 27.9532 31.9829 28.5935C32.4632 29.2339 32.7033 30.0934 32.7033 31.1719C32.7033 32.697 32.1514 33.8851 31.0476 34.7361C29.9522 35.5787 28.4693 36 26.5987 36H20.3803ZM42.4713 22.0465C41.0726 22.0465 40.0151 22.5184 39.2989 23.4621C38.5911 24.4058 38.2372 25.8045 38.2372 27.6582C38.2372 31.3994 39.6402 33.27 42.446 33.27C45.2603 33.27 46.6675 31.3994 46.6675 27.6582C46.6675 23.9171 45.2687 22.0465 42.4713 22.0465ZM36.5815 21.3008C37.9634 19.8431 39.9309 19.1143 42.4839 19.1143C45.037 19.1143 46.9876 19.8515 48.3358 21.3261C49.6924 22.8006 50.3707 24.9156 50.3707 27.6709C50.3707 30.4262 49.6882 32.5411 48.3232 34.0157C46.9582 35.4902 44.9991 36.2275 42.446 36.2275C39.9014 36.2275 37.9465 35.4902 36.5815 34.0157C35.2165 32.5411 34.534 30.4178 34.534 27.6456C34.534 24.8734 35.2165 22.7585 36.5815 21.3008ZM58.0903 33.093C61.486 33.093 63.1838 31.2688 63.1838 27.6203C63.1838 24.0477 61.6082 22.2614 58.4568 22.2614H56.5863V33.093H58.0903ZM58.2799 19.367C60.9846 19.367 63.0869 20.0832 64.5868 21.5157C66.095 22.9397 66.8491 24.983 66.8491 27.6456C66.8491 30.2998 66.0697 32.3557 64.5109 33.8134C62.9521 35.2711 60.7024 36 57.7617 36H53.06V19.367H58.2799ZM73.0726 36H69.5463V19.367H73.0726V36ZM83.5637 22.0718C82.2408 22.0718 81.2129 22.5689 80.4798 23.5632C79.7552 24.5659 79.3928 25.9562 79.3928 27.7341C79.3928 31.4415 80.7831 33.2952 83.5637 33.2952C84.7434 33.2952 86.1589 33.0045 87.8104 32.4232V35.3807C86.4538 35.9452 84.9287 36.2275 83.2351 36.2275C80.8168 36.2275 78.9673 35.4944 77.6866 34.0283C76.4058 32.5538 75.7654 30.4473 75.7654 27.7088C75.7402 25.1136 76.4395 23.0281 77.8635 21.4525C79.2959 19.8684 81.196 19.0932 83.5637 19.1269C85.1815 19.1269 86.8077 19.5187 88.4424 20.3023L87.3049 23.1714C85.7629 22.4383 84.5159 22.0718 83.5637 22.0718ZM104.23 19.367V36H100.716V28.821H94.1312V36H90.6049V19.367H94.1312V25.8888H100.716V19.367H104.23ZM117.9 19.367H121.047L114.854 36H111.707L117.9 19.367ZM121.411 33.6871V30.9697L129.196 27.772L121.411 24.1699V21.4398L132.71 27.0768V28.7073L121.411 33.6871Z" fill="#F0F0F0"/>
</g>
<defs>
<linearGradient id="paint0_linear_595_61" x1="57.2265" y1="11.0332" x2="3.16009" y2="45.3532" gradientUnits="userSpaceOnUse">
<stop stop-color="#3D0066"/>
<stop offset="0.5" stop-color="#7A24AD"/>
<stop offset="1" stop-color="#4A19D3"/>
</linearGradient>
<clipPath id="clip0_595_61">
<rect width="140" height="57" fill="white"/>
</clipPath>
</defs>
</svg>
